<svg width="82" height="100" viewBox="0 0 82 100" fill="none" xmlns="http://www.w3.org/2000/svg">
<path d="M41 -4.74975e-06C35.681 -0.249475 30.3684 0.614402 25.4024 2.53633C20.4364 4.45825 15.9265 7.39588 12.1612 11.1612C8.39589 14.9264 5.45827 19.4364 3.53634 24.4024C1.61442 29.3684 0.75054 34.6809 1.00001 40C1.00001 52.6 11 65 16 70C21 75 41 100 41 100C41 100 61 75 66 70C71 65 81 52.6 81 40C81.2495 34.6809 80.3856 29.3684 78.4637 24.4024C76.5418 19.4364 73.6041 14.9264 69.8389 11.1612C66.0736 7.39588 61.5636 4.45825 56.5976 2.53633C51.6317 0.614402 46.3191 -0.249475 41 -4.74975e-06ZM41 56.25C37.7861 56.25 34.6443 55.2969 31.972 53.5114C29.2997 51.7258 27.2169 49.1879 25.987 46.2186C24.7571 43.2493 24.4352 39.982 25.0623 36.8298C25.6893 33.6776 27.2369 30.7821 29.5095 28.5095C31.7821 26.2369 34.6776 24.6892 37.8298 24.0622C40.982 23.4352 44.2493 23.757 47.2186 24.9869C50.1879 26.2169 52.7258 28.2997 54.5114 30.972C56.297 33.6443 57.25 36.786 57.25 40C57.25 42.134 56.8297 44.2471 56.0131 46.2186C55.1964 48.1901 53.9995 49.9815 52.4905 51.4905C50.9816 52.9994 49.1902 54.1964 47.2186 55.013C45.2471 55.8297 43.134 56.25 41 56.25Z" fill="white"/>
</svg>
