<svg width="33" height="42" viewBox="0 0 33 42" fill="none" xmlns="http://www.w3.org/2000/svg">
<path d="M16.5002 0.0424897C14.3194 -0.0597932 12.1413 0.294396 10.1052 1.08239C8.06917 1.87037 6.22007 3.0748 4.67631 4.61857C3.13254 6.16233 1.92811 8.01142 1.14013 10.0475C0.352136 12.0835 -0.00205402 14.2617 0.100229 16.4425C0.100229 21.6085 4.20023 26.6925 6.25023 28.7425C8.30023 30.7925 16.5002 41.0425 16.5002 41.0425C16.5002 41.0425 24.7002 30.7925 26.7502 28.7425C28.8002 26.6925 32.9002 21.6085 32.9002 16.4425C33.0025 14.2617 32.6483 12.0835 31.8603 10.0475C31.0724 8.01142 29.8679 6.16233 28.3242 4.61857C26.7804 3.0748 24.9313 1.87037 22.8953 1.08239C20.8592 0.294396 18.6811 -0.0597932 16.5002 0.0424897ZM16.5002 23.105C15.1825 23.105 13.8944 22.7142 12.7987 21.9822C11.7031 21.2501 10.8492 20.2095 10.3449 18.9921C9.84062 17.7747 9.70868 16.4351 9.96575 15.1427C10.2228 13.8503 10.8574 12.6632 11.7891 11.7314C12.7209 10.7996 13.908 10.1651 15.2004 9.90801C16.4928 9.65093 17.8325 9.78287 19.0499 10.2871C20.2673 10.7914 21.3078 11.6454 22.0399 12.741C22.772 13.8366 23.1627 15.1248 23.1627 16.4425C23.1627 17.3174 22.9904 18.1838 22.6556 18.9921C22.3208 19.8004 21.83 20.5349 21.2113 21.1536C20.5927 21.7723 19.8582 22.263 19.0499 22.5978C18.2415 22.9327 17.3752 23.105 16.5002 23.105Z" fill="url(#paint0_linear_15_256)"/>
<defs>
<linearGradient id="paint0_linear_15_256" x1="0.083008" y1="17.7994" x2="32.9176" y2="17.8106" gradientUnits="userSpaceOnUse">
<stop stop-color="#FFA279"/>
<stop offset="1" stop-color="#F3743D"/>
</linearGradient>
</defs>
</svg>
